<svg width="154" height="55" viewBox="0 0 154 55" fill="none" xmlns="http://www.w3.org/2000/svg">
<path d="M29.8665 15.6544C29.2731 15.0607 28.2841 14.665 27.4929 14.665C26.5039 14.665 25.7126 15.0607 25.1192 15.6544L15.8225 24.9555C15.2291 25.5492 14.8335 26.5387 14.8335 27.3303C14.8335 28.3198 15.2291 29.1114 15.8225 29.7051L30.8555 44.7452C30.8555 44.7452 31.0533 44.9431 31.0533 45.141C31.0533 45.3389 31.0533 45.3389 30.8555 45.5368L28.0863 48.3074C28.0863 48.3074 27.8884 48.5053 27.6906 48.5053C27.4928 48.5053 27.4929 48.5053 27.2951 48.3074L6.72363 27.7261C6.72363 27.7261 6.52581 27.5282 6.52581 27.3303C6.52581 27.1324 6.52582 27.1324 6.72363 26.9345L27.2951 6.35328C27.2951 6.35328 27.4928 6.15537 27.6906 6.15537C27.8884 6.15537 27.8885 6.15538 28.0863 6.35328L37.9764 16.2481C37.9764 16.2481 38.1742 16.446 38.372 16.446C38.5698 16.446 38.5698 16.446 38.7676 16.2481L39.5588 15.4565C40.1522 14.8628 40.5478 13.8733 40.5478 13.0817C40.5478 12.0923 40.1522 11.3007 39.5588 10.707L30.2621 1.40586C29.6687 0.812175 28.6797 0.416382 27.8885 0.416382C26.8994 0.416382 26.1083 0.812175 25.5149 1.40586L1.97632 24.9555C1.38291 25.5492 0.987305 26.5387 0.987305 27.3303C0.987305 28.3198 1.38291 29.1114 1.97632 29.7051L25.5149 53.2548C26.1083 53.8485 27.0972 54.2443 27.8885 54.2443C28.6797 54.2443 29.6687 53.8485 30.2621 53.2548L35.9984 47.5158C36.5918 46.9221 36.9874 45.9326 36.9874 45.141C36.9874 44.3494 36.5918 43.3599 35.9984 42.7662L31.2511 38.0167L39.5588 29.7051C40.1522 29.1114 40.5478 28.1219 40.5478 27.3303C40.5478 26.3408 40.1522 25.5492 39.5588 24.9555L29.8665 15.6544ZM27.6906 34.2567C27.6906 34.2567 27.4929 34.4546 27.2951 34.4546C27.0973 34.4546 27.0972 34.4546 26.8994 34.2567L20.5698 27.924C20.5698 27.924 20.372 27.7261 20.372 27.5282C20.372 27.3303 20.372 27.3303 20.5698 27.1324L26.8994 20.7998C26.8994 20.7998 27.0973 20.6019 27.2951 20.6019C27.4929 20.6019 27.4928 20.6019 27.6906 20.7998L34.0203 27.1324C34.0203 27.1324 34.2182 27.3303 34.2182 27.5282C34.2182 27.7261 34.2182 27.7261 34.0203 27.924L27.6906 34.2567Z" fill="white"/>
<path d="M50.8326 39.7982C50.8326 39.9961 50.8326 39.9961 50.8326 39.9961C50.8326 39.9961 50.6348 39.9961 50.4369 39.9961H48.8546C48.6568 39.9961 48.6567 39.9961 48.6567 39.9961V39.7982V30.1013C48.6567 29.9034 48.6568 29.5076 48.8546 29.3097C49.0524 29.1118 49.2501 29.1118 49.6458 29.1118H53.6018C54.1952 29.1118 54.5909 29.1118 55.1843 29.3097C55.5799 29.5076 55.9754 29.7055 56.371 30.1013C56.7666 30.4971 56.9645 30.695 57.1623 31.2887C57.3601 31.6845 57.36 32.0803 57.36 32.674C57.36 32.8719 57.3601 33.2677 57.1623 33.6635C57.1623 34.0593 56.9644 34.455 56.5688 34.8508C56.371 35.2466 55.9754 35.6424 55.382 35.8403C54.7886 36.0382 54.1952 36.2361 53.2062 36.2361H50.8326V39.7982ZM54.393 32.674C54.393 32.4761 54.393 32.2782 54.393 32.2782C54.393 32.0803 54.1952 31.8824 54.1952 31.8824C53.9974 31.6845 53.9974 31.6845 53.7996 31.4866C53.6018 31.2887 53.404 31.2887 53.0084 31.2887H51.0304V34.2571H53.0084C53.6018 34.2571 53.9974 34.0592 54.1952 33.8613C54.1952 33.4655 54.393 33.0698 54.393 32.674Z" fill="white"/>
<path d="M66.4582 39.9957H66.2604H61.5132C60.9198 39.9957 60.5242 39.9957 60.1286 39.7978C59.733 39.5999 59.5351 39.4021 59.3373 39.2042C59.1395 39.0063 58.9418 38.6105 58.9418 38.2147C58.9418 37.8189 58.744 37.4231 58.744 37.2252V32.0799C58.744 31.6841 58.744 31.2883 58.9418 31.0904C59.1396 30.6946 59.1396 30.4967 59.5352 30.1009C59.733 29.903 60.1286 29.7051 60.5242 29.5072C60.9198 29.3093 61.3154 29.3093 61.9088 29.3093H66.4582C66.656 29.3093 66.6561 29.3093 66.6561 29.3093C66.6561 29.3093 66.6561 29.5072 66.6561 29.7051V31.0904C66.6561 31.2883 66.6561 31.2883 66.6561 31.2883H66.4582H62.5022C62.1066 31.2883 61.9088 31.2883 61.711 31.4862C61.5132 31.6841 61.5132 31.882 61.5132 32.2778V33.4652H66.0627C66.2605 33.4652 66.2604 33.4652 66.2604 33.4652C66.2604 33.4652 66.2604 33.663 66.2604 33.8609V35.0483C66.2604 35.2462 66.2604 35.2462 66.2604 35.2462H66.0627H61.5132V37.0273C61.5132 37.4231 61.5132 37.621 61.711 37.8189C61.9088 38.0168 62.1066 38.0168 62.5022 38.0168H66.6561C66.8539 38.0168 66.8539 38.0168 66.8539 38.0168C66.8539 38.0168 66.8539 38.2147 66.8539 38.4126V39.7978C66.4583 39.7978 66.4582 39.9957 66.4582 39.9957Z" fill="white"/>
<path d="M77.3375 33.6631L76.5463 35.0483L75.1617 38.0168C74.9639 38.2147 74.9639 38.4126 74.7661 38.6105C74.5683 38.6105 74.3705 38.8084 74.1727 38.8084H73.3815C73.1837 38.8084 72.9859 38.8084 72.7881 38.6105C72.5903 38.6105 72.5903 38.4126 72.3925 38.0168L71.4034 36.0378L70.4144 33.861V39.7979C70.4144 39.9957 70.4144 39.9958 70.4144 39.9958H70.2166H68.6342C68.4364 39.9958 68.4364 39.9958 68.4364 39.9958V39.7979V30.1009C68.4364 29.7051 68.4364 29.5073 68.6342 29.3094C68.832 29.1115 69.0298 29.1115 69.4254 29.1115H70.4144C70.81 29.1115 71.0079 29.1115 71.0079 29.3094C71.2057 29.5073 71.2056 29.7051 71.4034 29.903L73.1836 33.6631L74.1727 35.8399L75.1617 33.4652L76.7441 29.903C76.9419 29.7051 76.9419 29.5073 77.1397 29.3094C77.3375 29.1115 77.5354 29.1115 77.931 29.1115H78.7222C79.1178 29.1115 79.3156 29.1115 79.5134 29.3094C79.7112 29.5073 79.7112 29.7051 79.7112 30.1009V39.7979C79.7112 39.9957 79.7112 39.9958 79.7112 39.9958H79.5134H77.931C77.7332 39.9958 77.7331 39.9958 77.7331 39.9958V39.7979V33.6631H77.3375Z" fill="white"/>
<path d="M91.3824 34.4549C91.3824 35.4444 91.3824 36.236 91.1846 36.8297C90.9868 37.6212 90.5912 38.215 90.1956 38.6108C89.8 39.2045 89.2066 39.4023 88.6132 39.7981C88.0198 39.996 87.2286 40.1939 86.4374 40.1939C84.855 40.1939 83.6682 39.6003 82.877 38.6108C82.0857 37.6213 81.6901 36.236 81.6901 34.4549C81.6901 33.6633 81.8879 32.8717 82.0857 32.0801C82.2835 31.2886 82.6791 30.6949 83.0747 30.2991C83.4703 29.9033 84.0638 29.5075 84.6572 29.1117C85.2506 28.9138 85.844 28.7159 86.6352 28.7159C87.4264 28.7159 88.2176 28.9138 88.811 29.1117C89.4044 29.3096 89.9978 29.7054 90.3934 30.2991C90.789 30.6949 91.1846 31.2886 91.3824 32.0801C91.3824 32.8717 91.3824 33.6633 91.3824 34.4549ZM88.811 34.6528C88.811 34.257 88.811 33.6633 88.6132 33.2675C88.6132 32.8717 88.4154 32.4759 88.2176 32.0801C88.0198 31.6844 87.822 31.4865 87.4264 31.2886C87.0308 31.0907 86.6352 31.0907 86.2396 31.0907C85.844 31.0907 85.4483 31.0907 85.2505 31.2886C84.8549 31.4865 84.6572 31.6844 84.4593 32.0801C84.2615 32.4759 84.0637 32.6738 84.0637 33.2675C84.0637 33.6633 83.866 34.0591 83.866 34.6528C83.866 35.2465 83.8659 35.6423 84.0637 36.236C84.0637 36.6318 84.2615 37.0276 84.4593 37.4234C84.6572 37.8192 84.8549 38.0171 85.2505 38.215C85.6462 38.4128 85.844 38.4129 86.4374 38.4129C86.833 38.4129 87.2286 38.215 87.6242 38.215C88.0198 38.0171 88.2176 37.8192 88.4154 37.4234C88.6132 37.0276 88.811 36.6318 88.811 36.236C88.811 35.4444 88.811 35.0486 88.811 34.6528Z" fill="white"/>
<path d="M102.461 39.9958C102.461 39.9958 102.263 39.9958 102.065 39.9958H100.483C100.285 39.9958 100.285 39.9958 100.285 39.9958V39.7979V35.4442H95.933V39.7979C95.933 39.9957 95.933 39.9958 95.933 39.9958C95.933 39.9958 95.7353 39.9958 95.5375 39.9958H93.955C93.7572 39.9958 93.7573 39.9958 93.7573 39.9958V39.7979V29.3094C93.7573 29.1115 93.7573 29.1115 93.7573 29.1115H93.955H95.5375C95.7353 29.1115 95.7352 29.1115 95.933 29.1115V29.3094V33.2673H100.285V29.3094C100.285 29.1115 100.285 29.1115 100.285 29.1115H100.483H102.065C102.263 29.1115 102.263 29.1115 102.461 29.1115V29.3094V39.7979C102.461 39.9957 102.461 39.9958 102.461 39.9958Z" fill="white"/>
<path d="M112.349 31.0904H109.58V39.7979C109.58 39.9957 109.58 39.9958 109.58 39.9958C109.58 39.9958 109.382 39.9958 109.185 39.9958H107.404C107.206 39.9958 107.206 39.9958 107.206 39.9958V39.7979V31.0904H104.239C104.042 31.0904 103.844 30.8926 103.844 30.6947V29.3094C103.844 29.1115 103.844 29.1115 103.844 29.1115H104.042H112.152C112.349 29.1115 112.349 29.1115 112.349 29.1115V29.3094V30.6947C112.547 30.8926 112.547 31.0904 112.349 31.0904Z" fill="white"/>
<path d="M53.6018 23.9662C54.1952 23.9662 54.5908 23.9663 54.9864 23.7684C55.382 23.5705 55.7777 23.5705 56.1733 23.3726C56.3711 23.3726 56.371 23.3726 56.5688 23.3726L56.7667 23.5705L57.36 24.7579C57.36 24.9558 57.5578 24.9557 57.36 25.1536C57.36 25.1536 57.3601 25.3515 57.1623 25.3515C56.5689 25.7473 55.9754 25.9452 55.382 26.1431C54.7886 26.341 54.1952 26.341 53.6018 26.341C52.8106 26.341 52.0194 26.1431 51.426 25.9452C50.8326 25.7473 50.2392 25.3516 49.8436 24.7579C49.448 24.3621 49.0524 23.7683 48.8546 22.9767C48.6568 22.1852 48.6567 21.3936 48.6567 20.602C48.6567 19.8104 48.8546 19.0188 49.0524 18.2272C49.2502 17.4357 49.6458 16.842 50.0414 16.4462C50.437 15.8525 51.0304 15.4567 51.6238 15.2588C52.2172 15.0609 53.0084 14.863 53.6018 14.863C54.1952 14.863 54.5909 14.863 55.1843 15.0609C55.7777 15.0609 56.1732 15.2588 56.7667 15.6546C56.9645 15.6546 56.9645 15.8525 56.9645 15.8525C56.9645 15.8525 56.9645 16.0504 56.9645 16.2483L56.5688 17.4357C56.5688 17.6336 56.371 17.6336 56.371 17.6336C56.371 17.6336 56.1733 17.6336 55.9755 17.6336C55.5799 17.4357 55.1842 17.4357 54.9864 17.2378C54.5908 17.2378 54.393 17.0399 53.9974 17.0399C53.6018 17.0399 53.2062 17.0399 52.8106 17.2378C52.415 17.4357 52.2172 17.6335 52.0194 18.0293C51.8216 18.4251 51.6238 18.8209 51.426 19.2167C51.2282 19.6125 51.2282 20.2062 51.2282 20.602C51.2282 21.1957 51.2282 21.5915 51.426 21.9873C51.426 22.3831 51.6238 22.7789 51.8216 23.1747C52.0194 23.5704 52.415 23.7683 52.6128 23.9662C52.6128 23.7683 53.2062 23.9662 53.6018 23.9662Z" fill="white"/>
<path d="M64.6783 23.5705H61.1179L60.5245 25.5494C60.5245 25.7473 60.5245 25.7473 60.3267 25.7473C60.3267 25.7473 60.1289 25.7473 59.9311 25.7473H58.1509C57.9531 25.7473 57.9531 25.7473 57.9531 25.7473V25.5494L61.3157 15.6546C61.3157 15.4567 61.5135 15.2588 61.5135 15.2588C61.5135 15.0609 61.7113 15.0609 61.7113 15.0609C61.7113 15.0609 61.9091 14.863 62.1069 14.863C62.3047 14.863 62.3047 14.863 62.5025 14.863H63.4915C63.6893 14.863 63.8871 14.863 63.8871 14.863C64.0849 14.863 64.0849 14.863 64.2827 15.0609L64.4805 15.2588C64.4805 15.4567 64.6783 15.4567 64.6783 15.6546L68.041 25.5494V25.7473C68.041 25.7473 68.041 25.9452 67.8432 25.9452H65.8652C65.6674 25.9452 65.6674 25.9452 65.6674 25.9452C65.6674 25.9452 65.4695 25.9452 65.4695 25.7473L64.6783 23.5705ZM61.5135 21.5915H64.085L63.4915 19.6125L62.8981 17.4357L62.3047 19.6125L61.5135 21.5915Z" fill="white"/>
<path d="M78.1291 25.7473C78.1291 25.7473 77.9314 25.7473 77.7336 25.7473H76.1511C75.9533 25.7473 75.9534 25.7473 75.9534 25.7473V25.5494V21.1957H71.6017V25.5494C71.6017 25.7473 71.6017 25.7473 71.6017 25.7473C71.6017 25.7473 71.4039 25.7473 71.2061 25.7473H69.6237C69.4259 25.7473 69.4258 25.7473 69.4258 25.7473V25.5494V15.0609C69.4258 14.863 69.4258 14.863 69.4258 14.863H69.6237H71.2061C71.4039 14.863 71.4039 14.863 71.6017 14.863V15.0609V19.0188H75.9534V15.0609C75.9534 14.863 75.9534 14.863 75.9534 14.863H76.1511H77.7336C77.9314 14.863 77.9313 14.863 78.1291 14.863V15.0609V25.5494C78.3269 25.7473 78.3269 25.7473 78.1291 25.7473Z" fill="white"/>
<path d="M88.0191 16.842H85.2499V25.5494C85.2499 25.7473 85.2499 25.7473 85.2499 25.7473C85.2499 25.7473 85.0521 25.7473 84.8543 25.7473H83.074C82.8762 25.7473 82.8763 25.7473 82.8763 25.7473V25.5494V16.842H80.107C79.9092 16.842 79.7114 16.6441 79.7114 16.4462V15.0609C79.7114 14.863 79.7114 14.863 79.7114 14.863H79.9092H88.0191C88.2169 14.863 88.2169 14.863 88.2169 14.863V15.0609V16.4462C88.4147 16.842 88.2169 16.842 88.0191 16.842Z" fill="white"/>
<path d="M97.5132 25.7473H97.3154H92.5682C91.9748 25.7473 91.5791 25.7473 91.1835 25.5494C90.7879 25.3515 90.5901 25.1536 90.1945 24.9557C89.9967 24.7578 89.7989 24.362 89.7989 23.9662C89.7989 23.5704 89.6011 23.1746 89.6011 22.9767V17.8315C89.6011 17.4357 89.6011 17.0399 89.7989 16.6441C89.9968 16.2483 89.9967 16.0504 90.3923 15.6546C90.5901 15.4567 90.9857 15.2588 91.3813 15.0609C91.777 14.863 92.1726 14.863 92.766 14.863H97.3154C97.5132 14.863 97.5132 14.863 97.5132 14.863C97.5132 14.863 97.5132 15.0609 97.5132 15.2588V16.6441C97.5132 16.842 97.5132 16.842 97.5132 16.842H97.3154H93.3594C92.9638 16.842 92.766 16.842 92.5682 17.0399C92.3704 17.2377 92.3704 17.4357 92.3704 17.8315V19.0188H96.9198C97.1176 19.0188 97.1176 19.0188 97.1176 19.0188C97.1176 19.0188 97.1176 19.2167 97.1176 19.4146V20.602C97.1176 20.7999 97.1176 20.7999 97.1176 20.7999H96.9198H92.3704V22.581C92.3704 22.9768 92.3704 23.1747 92.5682 23.3726C92.766 23.5705 92.9638 23.5705 93.3594 23.5705H97.5132C97.711 23.5705 97.7111 23.5705 97.7111 23.5705C97.7111 23.5705 97.7111 23.7683 97.7111 23.9662V25.3515C97.5132 25.7473 97.5132 25.7473 97.5132 25.7473Z" fill="white"/>
<path d="M103.051 22.1848L101.073 25.5491C101.073 25.747 100.876 25.747 100.876 25.747C100.876 25.747 100.678 25.747 100.48 25.747H98.502C98.502 25.747 98.3042 25.747 98.3042 25.5491V25.3512L101.667 20.008L98.502 15.0606V14.8627L98.6998 14.6648H100.48C100.678 14.6648 100.876 14.6648 100.876 14.6648L101.073 14.8627L102.854 18.029L104.634 14.8627C104.634 14.6648 104.832 14.6648 104.832 14.6648C104.832 14.6648 105.029 14.6648 105.227 14.6648H107.007C107.205 14.6648 107.205 14.6648 107.205 14.8627V15.0606L104.238 20.008L107.601 25.5491V25.747C107.601 25.747 107.601 25.9449 107.403 25.9449H105.425C105.227 25.9449 105.029 25.9449 105.029 25.9449L104.832 25.747L103.051 22.1848Z" fill="white"/>
<path d="M118.283 25.5491C118.283 25.747 118.283 25.747 118.283 25.747H118.085H116.107C115.909 25.747 115.711 25.5491 115.711 25.3512V16.6438H111.359V25.3512C111.359 25.5491 111.359 25.5491 111.359 25.5491H111.162H109.381C109.184 25.5491 108.986 25.3512 108.986 25.1533V15.4564C108.986 15.0606 108.986 14.8627 109.184 14.6648C109.381 14.4669 109.579 14.4669 109.975 14.4669H117.096C117.491 14.4669 117.689 14.4669 117.887 14.6648C118.085 14.8627 118.085 15.0606 118.085 15.4564V25.5491H118.283Z" fill="white"/>
<path d="M123.031 25.5494C123.031 25.7473 123.031 25.7473 123.031 25.7473C123.031 25.7473 122.833 25.7473 122.635 25.7473H121.053C120.855 25.7473 120.855 25.7473 120.855 25.7473V25.5494V15.8525C120.855 15.6546 120.855 15.2588 121.053 15.0609C121.251 14.863 121.449 14.863 121.844 14.863H125.8C126.394 14.863 126.789 14.863 127.383 15.0609C127.778 15.2588 128.174 15.4567 128.57 15.8525C128.965 16.2483 129.163 16.4462 129.361 16.842C129.559 17.2378 129.559 17.6336 129.559 18.2272C129.559 18.4251 129.559 18.8209 129.361 19.2167C129.361 19.6125 129.163 20.0083 128.767 20.4041C128.57 20.7999 128.174 21.1957 127.581 21.3936C126.987 21.5915 126.394 21.7894 125.405 21.7894H123.229V25.5494H123.031ZM126.591 18.4252C126.591 18.2273 126.591 18.0293 126.591 18.0293C126.591 17.8314 126.394 17.6336 126.394 17.6336C126.196 17.4357 126.196 17.4357 125.998 17.2378C125.8 17.2378 125.603 17.0399 125.207 17.0399H123.229V20.0083H125.207C125.8 20.0083 126.196 19.8104 126.394 19.6125C126.394 19.2167 126.591 18.8209 126.591 18.4252Z" fill="white"/>
<path d="M140.24 20.4038C140.24 21.3933 140.042 22.1849 140.042 22.7786C139.844 23.5702 139.449 24.1638 139.053 24.5596C138.657 25.1533 138.064 25.3512 137.47 25.747C136.877 25.9449 136.086 26.1428 135.295 26.1428C133.712 26.1428 132.525 25.5491 131.734 24.5596C130.943 23.5701 130.547 22.1849 130.547 20.4038C130.547 19.6122 130.745 18.8206 130.943 18.029C131.141 17.2374 131.536 16.6437 131.932 16.2479C132.328 15.8522 132.921 15.4563 133.514 15.0606C134.108 14.8627 134.701 14.6648 135.492 14.6648C136.284 14.6648 137.075 14.8627 137.668 15.0606C138.262 15.2584 138.855 15.6543 139.251 16.2479C139.646 16.6437 140.042 17.2374 140.24 18.029C140.042 18.6227 140.24 19.4143 140.24 20.4038ZM137.668 20.4038C137.668 20.008 137.668 19.4143 137.47 19.0185C137.47 18.6227 137.273 18.2269 137.075 17.8312C136.877 17.4354 136.679 17.2374 136.284 17.0395C135.888 16.8416 135.492 16.8417 135.097 16.8417C134.701 16.8417 134.306 16.8416 134.108 17.0395C133.712 17.2374 133.514 17.4354 133.317 17.8312C133.119 18.2269 132.921 18.4248 132.921 19.0185C132.921 19.4143 132.723 19.8101 132.723 20.4038C132.723 20.9975 132.723 21.3932 132.921 21.9869C132.921 22.3827 133.119 22.7785 133.317 23.1743C133.514 23.5701 133.712 23.768 134.108 23.9659C134.503 24.1638 134.701 24.1638 135.295 24.1638C135.69 24.1638 136.086 24.1638 136.481 23.9659C136.877 23.768 137.075 23.5701 137.273 23.1743C137.471 22.7785 137.668 22.3827 137.668 21.9869C137.668 21.1953 137.668 20.7996 137.668 20.4038Z" fill="white"/>
<path d="M151.316 19.6123L150.525 20.9976L149.14 23.966C148.943 24.1639 148.942 24.3618 148.745 24.5597C148.547 24.5597 148.349 24.7576 148.151 24.7576H147.36C147.162 24.7576 146.964 24.7576 146.767 24.5597C146.767 24.5597 146.569 24.3618 146.371 23.966L145.382 21.987L144.393 19.8102V25.7471C144.393 25.945 144.393 25.945 144.393 25.945H144.195H142.613C142.415 25.945 142.415 25.945 142.415 25.945V25.7471V16.0502C142.415 15.6544 142.415 15.4565 142.613 15.2586C142.811 15.0607 143.008 15.0607 143.404 15.0607H144.393C144.789 15.0607 144.986 15.0607 144.986 15.2586C145.184 15.4565 145.184 15.6544 145.382 15.8523L147.162 19.6123L148.151 21.7892L149.14 19.4144L150.723 15.8523C150.921 15.6544 150.921 15.4565 151.118 15.2586C151.316 15.0607 151.514 15.0607 151.91 15.0607H152.701C153.096 15.0607 153.294 15.0607 153.492 15.2586C153.69 15.4565 153.69 15.6544 153.69 16.0502V25.7471C153.69 25.945 153.69 25.945 153.69 25.945H153.492H151.712C151.514 25.945 151.514 25.945 151.514 25.945V25.7471V19.6123H151.316Z" fill="white"/>
</svg>
