<svg width="59" height="11" viewBox="0 0 59 11" fill="none" xmlns="http://www.w3.org/2000/svg">
<path d="M7.44141 3.69922L10.2344 4.10938C10.4688 4.14844 10.6641 4.30469 10.7422 4.53906C10.8203 4.75391 10.7617 5.00781 10.5859 5.16406L8.55469 7.17578L9.04297 10.0273C9.08203 10.2617 8.98438 10.4961 8.78906 10.6328C8.59375 10.7891 8.33984 10.7891 8.125 10.6914L5.625 9.34375L3.10547 10.6914C2.91016 10.7891 2.63672 10.7891 2.46094 10.6328C2.26562 10.4961 2.16797 10.2617 2.20703 10.0273L2.67578 7.17578L0.644531 5.16406C0.46875 5.00781 0.410156 4.75391 0.488281 4.53906C0.566406 4.30469 0.761719 4.14844 0.996094 4.10938L3.80859 3.69922L5.05859 1.10156C5.15625 0.886719 5.37109 0.75 5.625 0.75C5.85938 0.75 6.07422 0.886719 6.17188 1.10156L7.44141 3.69922Z" fill="#FFCC00"/>
<path d="M19.4414 3.69922L22.2344 4.10938C22.4688 4.14844 22.6641 4.30469 22.7422 4.53906C22.8203 4.75391 22.7617 5.00781 22.5859 5.16406L20.5547 7.17578L21.043 10.0273C21.082 10.2617 20.9844 10.4961 20.7891 10.6328C20.5938 10.7891 20.3398 10.7891 20.125 10.6914L17.625 9.34375L15.1055 10.6914C14.9102 10.7891 14.6367 10.7891 14.4609 10.6328C14.2656 10.4961 14.168 10.2617 14.207 10.0273L14.6758 7.17578L12.6445 5.16406C12.4688 5.00781 12.4102 4.75391 12.4883 4.53906C12.5664 4.30469 12.7617 4.14844 12.9961 4.10938L15.8086 3.69922L17.0586 1.10156C17.1562 0.886719 17.3711 0.75 17.625 0.75C17.8594 0.75 18.0742 0.886719 18.1719 1.10156L19.4414 3.69922Z" fill="#FFCC00"/>
<path d="M31.4414 3.69922L34.2344 4.10938C34.4688 4.14844 34.6641 4.30469 34.7422 4.53906C34.8203 4.75391 34.7617 5.00781 34.5859 5.16406L32.5547 7.17578L33.043 10.0273C33.082 10.2617 32.9844 10.4961 32.7891 10.6328C32.5938 10.7891 32.3398 10.7891 32.125 10.6914L29.625 9.34375L27.1055 10.6914C26.9102 10.7891 26.6367 10.7891 26.4609 10.6328C26.2656 10.4961 26.168 10.2617 26.207 10.0273L26.6758 7.17578L24.6445 5.16406C24.4688 5.00781 24.4102 4.75391 24.4883 4.53906C24.5664 4.30469 24.7617 4.14844 24.9961 4.10938L27.8086 3.69922L29.0586 1.10156C29.1562 0.886719 29.3711 0.75 29.625 0.75C29.8594 0.75 30.0742 0.886719 30.1719 1.10156L31.4414 3.69922Z" fill="#FFCC00"/>
<path d="M43.4414 3.69922L46.2344 4.10938C46.4688 4.14844 46.6641 4.30469 46.7422 4.53906C46.8203 4.75391 46.7617 5.00781 46.5859 5.16406L44.5547 7.17578L45.043 10.0273C45.082 10.2617 44.9844 10.4961 44.7891 10.6328C44.5938 10.7891 44.3398 10.7891 44.125 10.6914L41.625 9.34375L39.1055 10.6914C38.9102 10.7891 38.6367 10.7891 38.4609 10.6328C38.2656 10.4961 38.168 10.2617 38.207 10.0273L38.6758 7.17578L36.6445 5.16406C36.4688 5.00781 36.4102 4.75391 36.4883 4.53906C36.5664 4.30469 36.7617 4.14844 36.9961 4.10938L39.8086 3.69922L41.0586 1.10156C41.1562 0.886719 41.3711 0.75 41.625 0.75C41.8594 0.75 42.0742 0.886719 42.1719 1.10156L43.4414 3.69922Z" fill="#FFCC00"/>
<path d="M55.4414 3.69922L58.2344 4.10938C58.4688 4.14844 58.6641 4.30469 58.7422 4.53906C58.8203 4.75391 58.7617 5.00781 58.5859 5.16406L56.5547 7.17578L57.043 10.0273C57.082 10.2617 56.9844 10.4961 56.7891 10.6328C56.5938 10.7891 56.3398 10.7891 56.125 10.6914L53.625 9.34375L51.1055 10.6914C50.9102 10.7891 50.6367 10.7891 50.4609 10.6328C50.2656 10.4961 50.168 10.2617 50.207 10.0273L50.6758 7.17578L48.6445 5.16406C48.4688 5.00781 48.4102 4.75391 48.4883 4.53906C48.5664 4.30469 48.7617 4.14844 48.9961 4.10938L51.8086 3.69922L53.0586 1.10156C53.1562 0.886719 53.3711 0.75 53.625 0.75C53.8594 0.75 54.0742 0.886719 54.1719 1.10156L55.4414 3.69922Z" fill="#FFCC00"/>
</svg>
